#!OML:ASF E:\motion texture\Top Level 1\Subject 1\Session 1\male.ASF
:FULLY-SPECIFIED
:DEGREES
193
root 16.2645 16.7408 5.16514 94.954 -81.396 -85.5479
lowerback 13.7814 -0.0674502 4.70353
upperback 5.78027 0.23745 5.06979
thorax -1.6149 -0.0495304 2.62445
lowerneck -15.8973 0.178877 -2.24604
upperneck 0.692649 0.154233 6.02932
head 3.06023 0.257297 2.43563
rclavicle -1.61016e-014 -5.96354e-015
rhumerus 53.2231 16.8301 -68.8234
rradius 67.1504
rwrist 26.8746
rhand -27.9015 -20.6233
rfingers 7.12502
rthumb -1.29076 -50.5991
lclavicle -1.61016e-014 -5.96354e-015
lhumerus 41.4353 -20.6455 97.935
lradius 62.6659
lwrist 27.3845
lhand -16.0822 44.4585
lfingers 7.12502
lthumb 10.1209 74.1951
rfemur -29.6695 -2.29324 26.9825
rtibia 65.2399
rfoot -9.40933 -3.56529
rtoes -6.5025
lfemur -49.4168 5.04443 -11.1966
ltibia 32.7849
lfoot -2.9059 4.80218
ltoes -8.74029
194
root 16.068 16.7178 5.19465 95.1221 -81.4808 -85.915
lowerback 13.851 -0.112895 4.58636
upperback 5.85194 0.158833 5.05372
thorax -1.57677 -0.0910965 2.68556
lowerneck -15.9945 0.151696 -2.26972
upperneck 0.797419 0.115568 6.08392
head 3.11805 0.243093 2.45949
rclavicle -1.88845e-014 -3.77691e-014
rhumerus 52.4105 16.768 -69.4849
rradius 66.7626
rwrist 27.0833
rhand -27.7537 -20.8236
rfingers 7.12502
rthumb -1.14801 -50.8003
lclavicle -1.88845e-014 -3.77691e-014
lhumerus 41.1856 -20.9775 98.1739
lradius 62.2978
lwrist 27.5255
lhand -16.4761 44.8051
lfingers 7.12502
lthumb 9.74084 74.5598
rfemur -29.9459 -2.32504 26.6477
rtibia 66.4564
rfoot -8.39914 -3.69153
rtoes -6.0029
lfemur -49.301 5.04126 -11.4384
ltibia 33.4777
lfoot -2.86474 4.73596
ltoes -8.10022
195
root 15.872 16.6951 5.22427 95.2898 -81.573 -86.2902
lowerback 13.9248 -0.160558 4.46369
upperback 5.92552 0.0765272 5.03525
thorax -1.53852 -0.134709 2.74792
lowerneck -16.0973 0.124805 -2.29735
upperneck 0.904423 0.0779383 6.13787
head 3.17787 0.229493 2.48413
rclavicle -2.18663e-014 -7.59357e-014
rhumerus 51.5172 16.7219 -70.1532
rradius 66.3952
rwrist 27.2762
rhand -27.5773 -21.0224
rfingers 7.12502
rthumb -0.977616 -50.9999
lclavicle -2.18663e-014 -7.59357e-014
lhumerus 40.8883 -21.3263 98.4025
lradius 61.9302
lwrist 27.6748
lhand -16.8608 45.1712
lfingers 7.12502
lthumb 9.36961 74.943
rfemur -30.2597 -2.34356 26.3046
rtibia 67.6574
rfoot -7.40548 -3.85539
rtoes -5.45045
lfemur -49.1772 5.04728 -11.6996
ltibia 34.2728
lfoot -2.8777 4.6705
ltoes -7.46481
196
root 15.6763 16.6729 5.25392 95.4674 -81.6716 -86.6816
lowerback 14.0009 -0.210658 4.33775
upperback 6.00093 -0.00962959 5.01381
thorax -1.49918 -0.180402 2.8097
lowerneck -16.2051 0.0988001 -2.3294
upperneck 1.01306 0.0422213 6.19179
head 3.23931 0.216932 2.50988
rclavicle 5.96354e-015 8.34896e-015
rhumerus 50.5453 16.6914 -70.828
rradius 66.0502
rwrist 27.452
rhand -27.3721 -21.2306
rfingers 7.12502
rthumb -0.779442 -51.2089
lclavicle 5.96354e-015 8.34896e-015
lhumerus 40.5436 -21.6907 98.6182
lradius 61.565
lwrist 27.8361
lhand -17.2269 45.5697
lfingers 7.12502
lthumb 9.01644 75.3571
rfemur -30.6099 -2.34808 25.9557
rtibia 68.8329
rfoot -6.43874 -4.05402
rtoes -4.86041
lfemur -49.0449 5.06174 -11.9764
ltibia 35.1588
lfoot -2.94568 4.61145
ltoes -6.84749
197
root 15.4813 16.6514 5.28351 95.6574 -81.7771 -87.0899
lowerback 14.0807 -0.262358 4.20652
upperback 6.07625 -0.0984591 4.99067
thorax -1.46153 -0.227645 2.87324
lowerneck -16.4572 0.0876666 -2.25606
upperneck 1.49599 -0.00422749 6.35555
head 3.07231 0.224268 2.31402
rclavicle -6.75868e-015 -6.20208e-014
rhumerus 49.494 16.6749 -71.5067
rradius 65.7311
rwrist 27.6092
rhand -27.1433 -21.441
rfingers 7.12502
rthumb -0.558475 -51.42
lclavicle -6.75868e-015 -6.20208e-014
lhumerus 40.1483 -22.0689 98.8255
lradius 61.2026
lwrist 28.0012
lhand -17.5758 45.995
lfingers 7.12502
lthumb 8.67969 75.7965
rfemur -30.9953 -2.33901 25.6021
rtibia 69.9728
rfoot -5.51261 -4.2847
rtoes -4.24548
lfemur -48.9031 5.08278 -12.2667
ltibia 36.1239
lfoot -3.07476 4.56161
ltoes -6.25307
198
root 15.2869 16.6307 5.31296 95.8628 -81.8885 -87.5164
lowerback 14.1599 -0.315915 4.07157
upperback 6.15392 -0.190738 4.96569
thorax -1.42058 -0.276807 2.93756
lowerneck -16.574 0.0639407 -2.29473
upperneck 1.61419 -0.0360638 6.40803
head 3.12805 0.214518 2.33556
rclavicle -1.59028e-015 -2.90226e-014
rhumerus 48.3697 16.6704 -72.1856
rradius 65.44
rwrist 27.7471
rhand -26.8956 -21.6518
rfingers 7.12502
rthumb -0.319236 -51.6313
lclavicle -1.59028e-015 -2.90226e-014
lhumerus 39.7078 -22.4623 99.0182
lradius 60.8441
lwrist 28.1799
lhand -17.9198 46.4281
lfingers 7.12502
lthumb 8.3477 76.2431
rfemur -31.414 -2.3179 25.2458
rtibia 71.0669
rfoot -4.63699 -4.54533
rtoes -3.61552
lfemur -48.7495 5.10904 -12.5671
ltibia 37.1531
lfoot -3.25874 4.52272
ltoes -5.69052
199
root 15.0933 16.6112 5.34221 96.0876 -82.0058 -87.9636
lowerback 14.2392 -0.371243 3.93373
upperback 6.23248 -0.28601 4.93852
thorax -1.37826 -0.327638 3.00175
lowerneck -16.6942 0.0417509 -2.33676
upperneck 1.73177 -0.0650067 6.45805
head 3.18405 0.206127 2.3571
rclavicle 1.07344e-014 1.94809e-014
rhumerus 47.1744 16.6772 -72.8639
rradius 65.1796
rwrist 27.8658
rhand -26.6348 -21.8637
rfingers 7.12502
rthumb -0.0673448 -51.8434
lclavicle 1.07344e-014 1.94809e-014
lhumerus 39.2208 -22.8672 99.1991
lradius 60.4883
lwrist 28.3528
lhand -18.2365 46.8814
lfingers 7.12502
lthumb 8.04207 76.7084
rfemur -31.8639 -2.28621 24.8881
rtibia 72.1051
rfoot -3.82276 -4.83321
rtoes -2.97798
lfemur -48.5814 5.1384 -12.8748
ltibia 38.2308
lfoot -3.49222 4.4949
ltoes -5.16422
200
root 14.9006 16.5928 5.37118 96.3394 -82.1285 -88.4372
lowerback 14.3192 -0.427769 3.79244
upperback 6.31061 -0.383393 4.91021
thorax -1.33633 -0.379728 3.06715
lowerneck -16.8186 0.0213582 -2.38243
upperneck 1.84977 -0.090537 6.50435
head 3.24066 0.19932 2.37838
rclavicle -8.74653e-015 3.65764e-014
rhumerus 45.9105 16.695 -73.5369
rradius 64.9524
rwrist 27.963
rhand -26.3659 -22.0797
rfingers 7.12502
rthumb 0.192361 -52.0594
lclavicle -8.74653e-015 3.65764e-014
lhumerus 38.6874 -23.2855 99.3676
lradius 60.1375
lwrist 28.5366
lhand -18.5459 47.3433
lfingers 7.12502
lthumb 7.7435 77.1815
rfemur -32.3426 -2.24468 24.5305
rtibia 73.0772
rfoot -3.07581 -5.14878
rtoes -2.3507
lfemur -48.3965 5.16895 -13.1866
ltibia 39.3407
lfoot -3.77107 4.47654
ltoes -4.67659
201
root 14.7087 16.5758 5.3998 96.6091 -82.2558 -88.9257
lowerback 14.3969 -0.486398 3.64901
upperback 6.38803 -0.484071 4.88128
thorax -1.29336 -0.433631 3.13369
lowerneck -16.9432 0.003638 -2.43151
upperneck 1.96504 -0.11132 6.54602
head 3.29627 0.194585 2.39912
rclavicle 1.39149e-015 6.75868e-015
rhumerus 44.5831 16.7249 -74.2015
rradius 64.7598
rwrist 28.0363
rhand -26.0964 -22.3007
rfingers 7.12502
rthumb 0.452645 -52.28
lclavicle 1.39149e-015 6.75868e-015
lhumerus 38.1087 -23.7129 99.5253
lradius 59.7916
lwrist 28.7217
lhand -18.8375 47.8037
lfingers 7.12502
lthumb 7.46202 77.6521
rfemur -32.8479 -2.19609 24.1753
rtibia 73.9732
rfoot -2.40021 -5.49324
rtoes -1.741
lfemur -48.193 5.19668 -13.4988
ltibia 40.4672
lfoot -4.09418 4.46682
ltoes -4.22167
202
root 14.5178 16.5604 5.42802 96.9161 -82.3874 -89.4468
lowerback 14.4658 -0.547343 3.50477
upperback 6.46636 -0.588713 4.85041
thorax -1.24412 -0.489611 3.19915
lowerneck -17.062 -0.0102288 -2.48232
upperneck 2.07278 -0.125897 6.58243
head 3.3484 0.192426 2.41891
rclavicle 2.88238e-014 5.12864e-014
rhumerus 43.1995 16.7676 -74.8572
rradius 64.6017
rwrist 28.0837
rhand -25.8302 -22.5241
rfingers 7.12502
rthumb 0.709706 -52.5027
lclavicle 2.88238e-014 5.12864e-014
lhumerus 37.4879 -24.1467 99.67
lradius 59.4514
lwrist 28.9076
lhand -19.1044 48.2666
lfingers 7.12502
lthumb 7.20436 78.124
rfemur -33.3776 -2.1402 23.8237
rtibia 74.7848
rfoot -1.79933 -5.86757
rtoes -1.15931
lfemur -47.9678 5.22099 -13.8091
ltibia 41.5941
lfoot -4.4617 4.4664
ltoes -3.81226
